<?xml version="1.0" standalone="no"?>
<!DOCTYPE svg PUBLIC "-//W3C//DTD SVG 20010904//EN"
 "http://www.w3.org/TR/2001/REC-SVG-20010904/DTD/svg10.dtd">
<svg version="1.0" xmlns="http://www.w3.org/2000/svg"
 width="601.000000pt" height="601.000000pt" viewBox="0 0 601.000000 601.000000"
 preserveAspectRatio="xMidYMid meet">
<metadata>
Created by potrace 1.14, written by Peter Selinger 2001-2017
</metadata>
<g transform="translate(0.000000,601.000000) scale(0.100000,-0.100000)"
fill="#000000" stroke="none">
<path d="M2725 6000 c-139 -15 -182 -22 -305 -46 -1134 -225 -2040 -1083
-2325 -2199 -18 -71 -36 -146 -39 -165 -3 -19 -8 -46 -11 -60 -3 -14 -8 -45
-11 -70 -3 -25 -7 -56 -10 -70 -12 -71 -19 -206 -19 -395 1 -208 8 -322 29
-435 2 -8 6 -37 10 -65 4 -27 12 -66 16 -85 5 -19 11 -46 14 -60 12 -68 78
-298 106 -365 77 -191 111 -268 160 -361 423 -805 1180 -1375 2060 -1553 241
-49 306 -55 585 -56 208 0 335 6 420 20 53 9 89 14 130 21 71 10 287 65 398
100 580 187 1114 573 1484 1074 272 367 463 812 538 1250 24 141 22 129 40
300 8 69 9 392 2 445 -3 22 -9 72 -12 110 -3 39 -8 77 -10 85 -2 8 -6 35 -9
60 -3 25 -8 56 -11 70 -99 514 -304 954 -634 1365 -74 93 -317 335 -411 410
-41 33 -77 62 -80 65 -10 11 -105 78 -180 127 -377 248 -827 416 -1255 468
-27 4 -61 9 -75 12 -42 8 -520 11 -595 3z m540 -75 c240 -26 426 -63 620 -125
364 -117 699 -302 995 -549 94 -79 266 -248 331 -326 19 -22 37 -42 40 -45 19
-15 183 -242 238 -332 81 -129 197 -362 246 -493 37 -99 91 -268 99 -309 3
-12 14 -59 25 -106 11 -47 22 -101 25 -120 2 -19 7 -46 10 -60 28 -128 40
-528 22 -725 -40 -433 -196 -895 -428 -1265 -468 -745 -1212 -1231 -2083
-1359 -212 -31 -579 -34 -775 -5 -673 98 -1242 380 -1700 843 -445 449 -728
1007 -821 1616 -6 39 -12 81 -15 95 -21 130 -22 577 0 685 2 11 7 49 11 85 4
36 8 67 10 70 2 3 6 25 10 50 4 25 8 47 10 51 2 3 7 21 10 40 27 156 130 454
223 644 92 189 220 389 361 565 71 88 272 298 351 366 483 414 1085 668 1688
710 48 3 88 7 90 8 5 5 349 -2 407 -9z"/>
<path d="M2998 5856 c-1 -2 -64 -6 -138 -10 -74 -3 -146 -8 -160 -10 -14 -2
-47 -7 -75 -10 -95 -11 -231 -37 -340 -66 -791 -209 -1452 -744 -1819 -1470
-145 -288 -237 -588 -286 -935 -15 -103 -20 -471 -9 -600 22 -247 102 -589
184 -780 7 -16 23 -55 35 -85 95 -231 274 -518 464 -740 66 -77 286 -290 366
-353 254 -203 557 -371 861 -475 106 -37 319 -93 399 -106 99 -16 253 -36 315
-41 77 -5 336 -6 401 -1 93 8 180 17 194 21 8 2 37 6 64 10 239 30 611 152
851 280 127 67 159 86 245 143 273 178 529 419 731 687 233 307 420 717 494
1078 2 10 6 26 9 35 11 36 46 282 52 367 11 160 6 425 -11 535 -2 14 -7 50
-10 80 -19 169 -99 473 -170 645 -28 70 -32 78 -90 199 -442 922 -1387 1547
-2407 1592 -67 3 -128 7 -135 9 -6 2 -13 2 -15 1z m282 -40 c19 -3 58 -8 85
-11 103 -13 232 -38 395 -80 46 -11 247 -81 318 -111 238 -99 496 -253 707
-423 98 -79 328 -310 409 -411 279 -350 498 -814 570 -1215 3 -16 8 -41 11
-55 3 -14 8 -47 11 -75 4 -27 8 -53 10 -56 9 -16 19 -217 19 -389 -1 -176 -6
-278 -20 -350 -2 -14 -7 -43 -10 -65 -9 -62 -11 -76 -24 -135 -6 -30 -13 -64
-15 -75 -11 -55 -62 -222 -97 -318 -238 -656 -729 -1215 -1349 -1536 -428
-222 -853 -322 -1340 -316 -201 3 -235 6 -420 35 -925 147 -1756 798 -2124
1663 -83 196 -166 469 -191 632 -3 22 -8 56 -11 75 -3 19 -7 46 -9 60 -27 171
-24 553 5 734 5 34 12 79 15 101 12 78 76 326 111 427 284 819 926 1464 1744
1750 146 52 368 107 490 123 30 4 64 9 75 11 11 2 58 6 105 10 47 4 86 8 88 9
5 5 406 -4 442 -9z"/>
<path d="M2843 5632 c-20 -3 -22 -8 -18 -55 2 -29 5 -101 6 -160 l3 -108 88 2
88 1 0 29 c0 29 -1 29 -57 29 l-58 0 -1 47 c-4 235 -1 223 -51 215z"/>
<path d="M3154 5624 c-92 -31 -131 -147 -81 -244 36 -73 124 -101 201 -65 79
38 109 185 52 260 -42 54 -104 72 -172 49z m97 -57 c51 -39 52 -145 3 -195
-27 -27 -83 -21 -111 13 -22 25 -25 36 -21 88 4 50 9 64 32 84 29 25 72 30 97
10z"/>
<path d="M2573 5603 c-25 -5 -24 6 -3 -138 5 -33 12 -85 16 -115 3 -30 8 -59
11 -63 4 -7 40 -4 108 8 11 2 30 4 43 4 23 1 29 24 13 49 -6 10 -20 11 -59 4
l-50 -9 -7 56 c-4 30 -8 63 -10 72 -2 9 -6 40 -10 70 -7 57 -12 70 -23 68 -4
-1 -17 -4 -29 -6z"/>
<path d="M3479 5597 c0 -1 -2 -9 -4 -17 -2 -8 -19 -79 -38 -157 l-34 -142 29
-6 c16 -4 31 -5 32 -3 2 1 13 47 25 101 12 53 24 97 25 97 1 0 22 -52 47 -116
35 -92 49 -118 68 -125 13 -5 26 -8 28 -6 4 5 58 225 68 278 6 32 4 37 -16 42
-12 3 -26 4 -30 2 -4 -3 -15 -40 -24 -82 -9 -43 -20 -84 -24 -90 -4 -7 -26 36
-51 99 -39 98 -49 113 -72 119 -16 4 -28 7 -29 6z"/>
<path d="M2350 5556 c-47 -13 -84 -27 -84 -32 1 -5 19 -76 39 -157 l38 -148
29 6 c140 31 172 49 149 83 -7 11 -17 11 -61 -2 -30 -9 -57 -16 -61 -16 -9 0
-29 79 -20 84 3 2 23 7 44 11 44 8 52 18 38 44 -9 17 -16 18 -52 10 -46 -11
-54 -7 -64 32 -6 24 -3 26 49 38 62 14 67 18 59 49 -6 26 3 26 -103 -2z"/>
<path d="M2082 5475 l-34 -15 7 -92 c3 -51 8 -105 11 -120 2 -16 0 -28 -6 -28
-5 0 -10 3 -10 8 0 4 -17 25 -38 47 -20 22 -53 58 -73 81 l-36 41 -37 -15
c-20 -8 -36 -17 -36 -21 0 -20 98 -295 106 -298 5 -2 18 3 29 10 18 14 17 18
-18 118 l-36 104 31 -35 c125 -140 127 -142 156 -132 15 5 26 13 26 18 -1 5
-5 51 -9 103 -3 52 -8 98 -11 103 -3 4 -1 8 4 8 4 0 30 -41 56 -90 42 -80 50
-90 69 -84 12 3 25 9 29 13 7 6 -132 291 -142 291 -3 -1 -20 -7 -38 -15z"/>
<path d="M3935 5345 c-68 -148 -62 -200 25 -245 93 -47 140 -19 209 125 28 58
51 108 51 110 0 3 -13 11 -29 19 l-28 15 -44 -96 c-46 -103 -70 -133 -104
-133 -27 0 -65 35 -65 61 0 11 21 65 46 120 25 55 44 102 42 103 -6 6 -47 26
-51 26 -2 0 -26 -47 -52 -105z"/>
<path d="M4311 5251 c-12 -16 -52 -77 -91 -135 l-70 -106 26 -16 c13 -9 26
-15 29 -13 2 3 29 43 59 89 l56 85 1 -40 c5 -196 7 -219 25 -232 10 -7 21 -13
24 -13 5 0 129 183 172 256 5 7 -2 18 -17 28 l-25 16 -55 -82 c-30 -46 -56
-78 -56 -73 -2 12 -7 133 -8 191 -1 33 -6 45 -25 58 -24 15 -26 15 -45 -13z"/>
<path d="M1519 5180 c-41 -28 -74 -54 -74 -59 0 -14 169 -261 179 -261 10 0
156 103 156 110 -1 3 -7 13 -15 23 -13 18 -16 17 -67 -17 l-53 -37 -22 28
c-31 37 -29 44 16 72 41 25 44 45 10 56 -12 4 -29 -2 -45 -14 -35 -28 -46 -26
-66 7 l-17 28 45 28 c54 34 59 41 41 66 -13 18 -16 17 -88 -30z"/>
<path d="M2897 5114 c-1 -1 -38 -5 -83 -8 -89 -7 -104 -10 -214 -31 -41 -9
-84 -17 -95 -19 -48 -9 -196 -56 -266 -84 -279 -112 -510 -263 -714 -467 -295
-294 -478 -621 -575 -1025 -20 -84 -24 -108 -46 -290 -3 -30 -6 -111 -6 -180
0 -113 3 -158 17 -270 3 -19 7 -55 10 -80 8 -64 51 -230 85 -331 64 -191 181
-411 314 -589 87 -116 271 -303 387 -393 142 -110 374 -242 511 -292 156 -58
277 -93 368 -109 14 -2 43 -7 65 -11 22 -4 48 -9 58 -11 148 -26 459 -21 647
10 379 64 788 267 1069 531 205 192 340 374 461 620 97 197 171 434 194 615 3
25 9 70 13 100 9 75 9 327 -1 425 -14 147 -61 351 -111 485 -9 25 -21 60 -26
77 -17 55 -142 294 -198 378 -216 322 -521 588 -860 748 -93 44 -327 128 -391
141 -253 50 -323 58 -503 60 -59 1 -109 1 -110 0z m228 -28 c61 -3 119 -8 130
-10 11 -2 43 -7 70 -10 69 -10 217 -44 295 -68 430 -134 827 -425 1087 -798
65 -93 148 -237 182 -315 13 -27 28 -63 36 -80 40 -91 106 -311 119 -395 3
-19 8 -46 11 -60 17 -87 28 -217 27 -351 0 -141 -4 -183 -32 -349 -129 -760
-692 -1399 -1437 -1629 -117 -36 -262 -67 -358 -77 -38 -4 -83 -8 -100 -10
-44 -5 -273 -4 -320 1 -126 13 -161 19 -266 41 -453 95 -863 343 -1165 704
-197 235 -350 537 -421 829 -33 138 -34 145 -52 286 -9 73 -7 421 3 465 3 14
8 43 11 65 30 238 149 560 288 780 103 162 264 352 396 468 311 273 731 460
1126 503 79 9 239 20 250 18 6 -2 60 -5 120 -8z"/>
<path d="M2887 5014 c-1 -1 -38 -5 -82 -9 -267 -21 -597 -131 -844 -281 -169
-103 -368 -274 -499 -429 -194 -231 -350 -548 -415 -846 -25 -111 -29 -137
-43 -264 -8 -71 -8 -295 0 -351 3 -21 8 -64 11 -94 20 -176 92 -414 184 -605
214 -443 601 -805 1052 -983 72 -29 158 -60 189 -68 97 -25 183 -45 220 -50
25 -3 47 -8 50 -9 12 -7 192 -19 285 -18 101 0 250 9 295 18 13 2 42 7 65 10
22 3 92 20 155 36 605 160 1106 597 1345 1172 35 85 99 289 108 342 3 17 10
57 15 90 6 33 14 85 18 115 10 75 12 344 3 400 -4 25 -10 69 -13 99 -30 250
-146 556 -303 795 -210 321 -487 566 -828 731 -283 137 -536 196 -853 199 -62
1 -114 1 -115 0z m283 -68 c639 -48 1266 -480 1566 -1078 145 -290 208 -551
208 -863 0 -115 -10 -245 -25 -319 -6 -28 -12 -62 -15 -76 -76 -408 -341 -838
-691 -1118 -341 -274 -770 -424 -1208 -425 -153 0 -197 4 -390 38 -58 10 -201
51 -285 82 -581 214 -1033 704 -1200 1301 -17 57 -33 126 -36 151 -3 25 -8 48
-9 51 -4 6 -13 82 -20 160 -6 59 -6 275 -1 320 3 19 7 62 11 95 33 309 191
682 403 950 71 90 227 246 317 317 249 197 583 347 875 393 25 4 54 9 65 11
11 2 61 7 110 10 50 4 91 8 93 9 3 3 139 -3 232 -9z"/>
<path d="M2640 4735 c-22 -30 -58 -80 -80 -110 l-40 -54 -53 4 c-28 2 -98 7
-153 10 l-102 5 -30 -47 c-16 -27 -42 -71 -57 -98 -27 -49 -29 -51 -69 -50
-85 3 -188 -34 -255 -91 -35 -29 -78 -90 -104 -147 l-17 -38 88 3 c206 6 363
-55 507 -197 80 -79 135 -164 169 -267 13 -39 28 -74 33 -79 10 -10 514 -309
521 -309 3 0 122 72 263 161 l257 161 27 76 c100 282 371 466 669 456 43 -2
85 -5 92 -8 17 -6 17 -7 2 35 -10 32 -59 111 -83 135 -61 62 -163 105 -257
108 l-61 2 -56 97 -56 98 -90 -6 c-49 -3 -120 -8 -156 -10 l-66 -3 -78 109
c-58 80 -83 108 -94 103 -9 -3 -81 -30 -162 -60 l-145 -55 -82 31 c-45 16
-118 43 -162 60 l-80 29 -40 -54z m175 -291 c47 -96 86 -229 105 -356 10 -72
7 -274 -5 -286 -21 -21 -151 255 -171 361 -30 160 -34 222 -25 392 l2 40 24
-30 c14 -16 45 -71 70 -121z m471 -48 c-4 -180 -30 -294 -99 -440 -49 -103
-97 -179 -98 -156 0 8 -2 24 -5 35 -6 30 -6 204 1 255 19 145 76 315 147 434
38 64 42 68 50 47 5 -13 7 -92 4 -175z m-856 -93 c78 -83 158 -204 204 -310
39 -88 90 -263 76 -263 -10 0 -104 84 -145 129 -120 134 -213 306 -255 471
-11 43 -20 84 -20 90 0 17 68 -39 140 -117z m1260 31 c-11 -44 -23 -88 -25
-99 -10 -42 -97 -210 -147 -283 -29 -41 -89 -111 -133 -155 -67 -66 -81 -75
-83 -58 -3 19 28 152 47 196 36 88 102 213 146 275 59 83 206 231 212 214 2
-7 -5 -47 -17 -90z"/>
<path d="M1450 3891 c0 -5 7 -14 15 -21 25 -21 118 -178 162 -275 127 -278
165 -567 119 -887 -26 -176 -112 -397 -227 -585 l-20 -31 98 -1 c142 0 256
-16 388 -53 428 -120 786 -415 977 -806 l41 -84 49 98 c150 298 393 539 696
688 127 63 271 112 382 131 19 3 42 8 50 10 32 8 169 18 243 16 42 0 77 2 77
5 0 4 -15 32 -34 63 -94 156 -159 321 -197 504 -31 145 -32 428 -4 582 37 197
132 421 251 593 24 34 42 62 40 62 -5 0 -819 -401 -825 -406 -2 -1 6 -15 17
-31 60 -86 116 -233 136 -360 27 -177 3 -346 -74 -510 -115 -246 -318 -415
-597 -496 -28 -9 -54 -13 -57 -10 -3 4 -6 25 -6 49 0 40 2 43 33 49 55 11 143
44 203 76 76 41 156 101 146 111 -25 25 -519 308 -532 305 -8 -2 -85 -48 -170
-102 -85 -53 -199 -125 -253 -159 l-98 -61 33 -27 c52 -43 197 -114 275 -134
l71 -18 -3 -46 c-1 -25 -3 -46 -4 -47 0 -1 -33 7 -73 18 -328 91 -579 358
-648 689 -24 116 -20 305 10 409 23 82 77 205 109 250 12 16 21 33 21 38 0 10
-6 13 -390 203 -362 180 -430 211 -430 201z m482 -396 c72 -36 134 -68 136
-70 2 -2 -9 -39 -26 -82 -51 -133 -67 -222 -67 -378 0 -156 17 -248 66 -369
16 -39 29 -72 29 -73 0 -4 -109 -132 -138 -163 -33 -35 -49 -65 -31 -58 8 3
71 16 142 28 l127 23 38 -43 c173 -204 392 -327 647 -365 22 -3 43 -9 46 -13
4 -4 28 -67 55 -141 l47 -134 50 141 49 141 47 6 c223 30 455 153 618 329 l72
78 88 -16 c48 -10 99 -19 113 -22 14 -2 35 -6 48 -9 12 -3 22 -3 22 0 0 4 -39
51 -86 106 l-87 100 13 42 c6 23 15 47 20 52 14 19 50 171 58 250 19 170 -10
368 -73 512 -14 31 -24 57 -23 58 8 7 276 135 281 135 4 0 -2 -23 -14 -51 -92
-236 -119 -540 -74 -838 17 -111 89 -332 140 -431 l16 -30 -33 -1 c-136 -3
-373 -68 -545 -149 -265 -125 -495 -322 -664 -569 l-37 -53 -41 60 c-265 391
-707 659 -1166 708 -33 3 -61 7 -62 8 -1 1 16 44 38 95 41 96 94 266 104 336
3 22 8 46 10 53 23 66 23 387 1 498 -2 12 -7 39 -10 60 -10 57 -35 150 -62
228 -26 75 -26 76 -20 76 3 0 65 -29 138 -65z"/>
<path d="M3328 3382 c-136 -86 -248 -159 -248 -162 0 -3 27 -20 60 -38 53 -29
63 -31 83 -20 91 50 437 275 437 284 0 12 -69 94 -78 93 -4 0 -118 -71 -254
-157z"/>
<path d="M2361 3474 c-20 -26 -30 -49 -25 -54 5 -4 112 -69 237 -144 l228
-135 54 34 c29 19 56 38 58 42 5 9 -477 296 -502 300 -9 2 -31 -17 -50 -43z"/>
<path d="M3488 3237 c-113 -72 -204 -135 -202 -139 11 -17 115 -69 126 -62
110 63 348 219 348 228 -1 19 -44 100 -55 102 -5 1 -103 -57 -217 -129z"/>
<path d="M2256 3298 c-13 -29 -22 -56 -20 -59 4 -8 359 -219 368 -219 8 0 116
70 116 75 0 2 -78 50 -172 106 -95 56 -190 112 -210 125 -21 13 -42 24 -48 24
-6 0 -21 -24 -34 -52z"/>
<path d="M3632 3081 c-135 -85 -150 -97 -135 -109 36 -27 294 -174 298 -170
20 20 23 271 3 334 l-13 40 -153 -95z"/>
<path d="M2932 3133 c-29 -20 -51 -37 -50 -38 2 -2 29 -19 61 -38 l59 -35 59
37 c32 20 59 38 59 41 0 8 -110 70 -123 69 -7 0 -36 -16 -65 -36z"/>
<path d="M2202 3117 c-13 -59 -13 -201 0 -275 8 -52 13 -62 27 -57 24 9 291
179 291 185 0 3 -70 47 -155 97 l-154 91 -9 -41z"/>
<path d="M2737 3010 l-57 -38 59 -36 c32 -20 61 -36 65 -36 15 0 116 72 111
80 -5 8 -112 71 -117 69 -2 0 -29 -18 -61 -39z"/>
<path d="M3137 3014 l-58 -36 56 -34 c31 -19 61 -34 68 -34 13 0 117 62 117
70 0 6 -108 70 -119 70 -4 0 -33 -16 -64 -36z"/>
<path d="M2938 2890 l-58 -38 61 -36 c33 -20 62 -36 65 -36 14 0 114 73 109
80 -5 9 -109 71 -116 69 -2 0 -30 -18 -61 -39z"/>
<path d="M3332 2893 l-52 -36 92 -55 c51 -30 149 -88 217 -128 67 -41 126 -74
131 -74 5 0 50 101 50 115 0 7 -358 215 -370 214 -8 0 -39 -16 -68 -36z"/>
<path d="M2418 2809 l-177 -111 17 -42 c36 -88 15 -93 250 55 117 74 212 137
212 141 0 8 -103 68 -116 68 -5 0 -89 -50 -186 -111z"/>
<path d="M3143 2772 l-63 -39 253 -149 c138 -82 258 -149 265 -149 8 0 29 21
48 47 l35 47 -237 140 c-130 78 -237 141 -238 141 0 0 -29 -17 -63 -38z"/>
<path d="M2568 2657 c-125 -78 -228 -145 -228 -149 0 -3 19 -27 43 -52 l42
-45 245 155 c135 85 246 159 248 163 3 9 -98 71 -114 71 -5 0 -111 -64 -236
-143z"/>
<path d="M4544 4939 c-55 -66 -100 -123 -101 -127 -1 -4 9 -15 22 -25 l24 -17
100 122 c56 67 101 125 101 129 0 4 -11 14 -24 22 -24 16 -25 15 -122 -104z"/>
<path d="M1322 5030 c-28 -23 -34 -12 92 -163 88 -106 88 -106 113 -90 13 9
22 22 19 29 -4 11 -196 245 -200 244 0 -1 -11 -9 -24 -20z"/>
<path d="M4686 4812 c-36 -81 -66 -152 -66 -158 0 -6 9 -19 19 -28 19 -17 25
-16 156 43 74 34 139 61 144 61 5 0 14 6 20 13 8 11 5 19 -13 36 -22 20 -25
21 -52 6 -123 -64 -194 -95 -186 -78 6 10 31 63 56 117 36 77 44 101 34 108
-46 31 -42 34 -112 -120z"/>
<path d="M1172 4893 c-38 -19 -79 -68 -91 -109 -13 -49 6 -107 49 -152 67 -69
155 -80 220 -25 29 24 70 90 70 112 0 10 -100 111 -110 111 -3 0 -25 -19 -48
-43 -43 -43 -43 -43 -22 -62 20 -18 21 -18 45 5 l26 24 24 -25 25 -25 -27 -32
c-47 -55 -111 -48 -167 18 -48 57 -29 121 47 158 l38 18 -23 21 c-22 21 -25
21 -56 6z"/>
<path d="M4902 4578 c-67 -51 -122 -96 -122 -99 0 -8 110 -149 117 -149 4 0
14 7 24 16 17 15 16 19 -22 66 l-40 50 33 25 33 24 36 -41 36 -41 15 23 c15
22 14 26 -8 53 -30 38 -30 49 0 69 24 15 25 15 63 -33 39 -48 40 -49 62 -32
l22 17 -56 72 c-31 40 -59 72 -63 72 -4 0 -63 -42 -130 -92z"/>
<path d="M902 4590 c-28 -38 -52 -73 -52 -77 0 -7 204 -160 246 -185 8 -5 32
19 68 68 45 60 54 79 45 90 -19 24 -37 16 -71 -31 -18 -24 -37 -44 -41 -45 -4
0 -21 10 -37 22 l-29 21 29 41 c36 48 36 52 8 60 -18 5 -30 -2 -53 -30 l-31
-35 -27 21 -27 22 37 50 c35 48 36 51 18 64 -10 8 -21 14 -25 14 -3 0 -29 -31
-58 -70z"/>
<path d="M5070 4354 c-69 -42 -128 -79 -132 -82 -4 -4 1 -18 11 -31 l18 -24
51 29 c28 16 54 25 58 21 4 -4 -7 -39 -26 -77 l-34 -70 24 -25 23 -24 30 65
c27 56 34 64 51 58 70 -23 137 15 139 78 1 39 -53 152 -74 155 -8 2 -70 -31
-139 -73z m145 -33 c18 -35 12 -54 -20 -69 -19 -9 -28 -7 -49 9 -34 27 -33 43
7 67 43 27 44 27 62 -7z"/>
<path d="M762 4389 c-7 -10 -12 -23 -12 -28 0 -5 34 -28 75 -51 88 -48 98 -60
53 -61 -18 0 -53 -2 -78 -5 -123 -13 -131 -15 -142 -40 -6 -13 -9 -26 -7 -28
2 -2 65 -38 139 -80 122 -68 136 -74 148 -59 22 30 13 41 -74 88 -47 26 -84
48 -82 50 4 4 73 12 170 21 70 6 98 19 98 48 0 6 -30 28 -68 48 -37 21 -99 55
-138 77 -67 38 -71 39 -82 20z"/>
<path d="M5283 4110 c-40 -24 -40 -24 -48 -105 -6 -66 -15 -85 -42 -85 -21 0
-46 49 -47 91 -1 28 -5 38 -14 34 -8 -3 -20 -5 -28 -5 -20 0 -18 -56 5 -106
32 -69 81 -90 140 -59 33 17 46 49 50 120 3 61 25 86 52 58 10 -10 20 -33 23
-51 6 -44 11 -48 41 -34 24 11 24 12 10 58 -25 84 -85 119 -142 84z"/>
<path d="M603 4028 c-22 -11 -65 -87 -78 -139 -6 -25 -3 -28 122 -76 179 -70
168 -68 182 -37 6 15 10 28 9 29 -2 2 -26 12 -53 23 -28 11 -50 26 -50 33 0 8
25 19 65 29 79 18 86 23 92 55 6 30 -3 31 -82 10 -51 -13 -64 -13 -65 3 -5 63
-81 100 -142 70z m86 -82 c5 -11 4 -33 -1 -48 l-9 -26 -45 15 c-38 13 -44 18
-38 37 15 52 77 67 93 22z"/>
<path d="M5335 3818 c-82 -28 -151 -51 -153 -53 -7 -7 11 -55 22 -55 6 0 75
21 154 47 145 48 151 52 134 94 -6 15 -25 11 -157 -33z"/>
<path d="M5484 3716 c-3 -9 -2 -29 4 -44 5 -16 7 -33 3 -39 -5 -7 -121 -38
-225 -59 -27 -5 -29 -9 -21 -42 l6 -29 121 29 c67 16 127 27 134 24 6 -2 14
-20 18 -40 8 -42 19 -51 46 -36 16 8 19 17 14 33 -4 12 -17 65 -28 117 -19 83
-24 95 -44 98 -13 2 -25 -3 -28 -12z"/>
<path d="M715 3689 c-37 -6 -98 -14 -204 -24 -52 -5 -59 -10 -66 -50 -6 -29
-1 -33 131 -120 75 -49 140 -91 144 -93 4 -2 11 10 15 25 6 27 -7 47 -52 72
-12 6 -12 16 -2 57 15 62 22 71 59 72 41 1 50 9 50 42 0 31 -2 32 -75 19z
m-87 -117 l-13 -32 -42 28 c-24 15 -43 30 -43 34 0 9 92 15 103 7 5 -3 2 -20
-5 -37z"/>
<path d="M5501 3374 c-78 -59 -99 -69 -176 -77 -26 -3 -30 -8 -33 -36 l-3 -32
65 6 c62 5 70 3 166 -40 55 -25 103 -45 106 -45 5 0 -2 59 -8 65 -2 1 -34 17
-72 34 l-69 31 65 46 c64 44 66 46 57 76 -4 17 -10 32 -11 33 -2 1 -41 -26
-87 -61z"/>
<path d="M401 3362 c-48 -115 18 -219 142 -227 101 -7 165 42 174 134 6 64 -9
101 -43 101 -24 0 -25 -2 -19 -32 4 -18 8 -35 8 -38 1 -3 -2 -19 -6 -37 -8
-39 -48 -63 -104 -63 -89 0 -137 73 -95 144 l20 34 -21 6 c-37 10 -44 7 -56
-22z"/>
<path d="M564 2523 c-92 -22 -101 -26 -96 -45 4 -18 11 -20 46 -15 40 6 41 5
57 -32 12 -28 24 -40 45 -44 57 -11 100 31 90 86 -10 54 -19 77 -30 76 -6 -1
-57 -12 -112 -26z m96 -78 c-19 -23 -45 -18 -58 10 -11 23 -9 25 21 33 26 7
34 6 41 -9 6 -12 5 -24 -4 -34z"/>
<path d="M5326 2527 c-31 -31 -35 -84 -8 -116 20 -25 95 -50 132 -44 85 13
107 104 38 156 -17 12 -49 22 -82 25 -48 4 -57 1 -80 -21z m142 -43 c25 -17
29 -46 7 -64 -21 -17 -96 -4 -124 21 -16 15 -19 24 -11 39 5 10 15 21 22 24
19 8 80 -4 106 -20z"/>
<path d="M5285 2310 c-37 -14 -60 -63 -49 -105 7 -27 59 -62 112 -73 36 -9 47
-7 75 12 26 18 33 29 35 64 4 50 -23 81 -86 100 -45 14 -59 14 -87 2z m123
-74 c59 -58 -42 -90 -113 -35 -29 24 -31 36 -10 60 13 14 23 15 58 7 23 -5 52
-19 65 -32z"/>
<path d="M635 2275 c-84 -27 -99 -36 -97 -51 2 -11 5 -21 7 -23 2 -2 51 12
110 30 90 29 105 37 103 53 -2 11 -7 20 -13 22 -5 1 -55 -13 -110 -31z"/>
<path d="M763 2184 c-8 -4 -9 -13 -1 -35 13 -37 11 -38 -77 -74 -85 -34 -88
-37 -72 -59 12 -16 18 -15 94 17 81 34 103 34 103 1 0 -18 17 -26 34 -17 12 7
9 22 -19 88 -32 79 -39 88 -62 79z"/>
<path d="M5193 2090 c-49 -20 -61 -108 -19 -136 49 -31 102 -20 112 25 10 46
11 47 23 16 7 -16 10 -39 7 -51 -6 -24 22 -43 35 -23 10 17 0 90 -16 116 -31
46 -98 72 -142 53z m67 -60 c0 -33 -12 -50 -36 -50 -30 0 -48 31 -31 52 24 31
67 30 67 -2z"/>
<path d="M853 1963 c-10 -4 -10 -10 2 -26 8 -12 15 -26 15 -32 0 -6 -36 -30
-80 -54 -71 -38 -79 -44 -70 -62 6 -10 13 -19 16 -19 3 0 39 18 80 41 60 33
78 38 90 29 8 -7 14 -19 14 -26 0 -19 29 -18 36 0 7 17 -66 156 -81 155 -5 0
-16 -3 -22 -6z"/>
<path d="M5082 1893 c-15 -31 -9 -77 11 -81 12 -2 17 3 17 18 0 20 5 19 81
-22 67 -35 82 -40 89 -28 6 8 10 18 10 21 0 6 -183 109 -193 109 -4 0 -10 -8
-15 -17z"/>
<path d="M970 1733 c-39 -15 -49 -34 -44 -89 3 -43 1 -56 -11 -60 -21 -8 -42
12 -50 47 -7 31 -12 34 -33 20 -17 -10 -7 -49 21 -85 28 -35 82 -39 107 -8 14
16 16 34 13 77 -5 55 -4 57 19 53 15 -2 24 -11 26 -26 4 -26 28 -40 44 -24 11
11 -3 44 -35 80 -21 22 -30 25 -57 15z"/>
<path d="M4865 1570 c-15 -17 -12 -25 50 -124 60 -96 69 -105 80 -89 11 15 11
22 -1 45 -13 26 -13 31 8 59 20 27 27 29 59 24 31 -5 37 -3 42 14 5 21 -13 28
-195 81 -20 6 -31 4 -43 -10z m113 -59 c10 -6 8 -11 -7 -25 -18 -16 -20 -16
-41 14 l-22 31 29 -7 c15 -4 34 -10 41 -13z"/>
<path d="M1085 1519 c-28 -23 -67 -55 -87 -72 l-37 -30 31 -36 c17 -20 40 -41
51 -47 36 -20 87 6 87 44 0 13 9 21 28 25 31 6 55 46 45 74 -8 20 -55 83 -63
83 -3 0 -28 -19 -55 -41z m74 -37 c18 -34 -24 -57 -49 -27 -11 13 -10 18 6 30
25 19 31 18 43 -3z m-70 -59 c11 -20 -3 -53 -21 -53 -6 0 -20 7 -30 17 -17 15
-17 17 -2 35 21 23 40 23 53 1z"/>
<path d="M4716 1393 c-5 -12 3 -26 26 -47 18 -16 54 -49 80 -74 43 -42 47 -43
67 -30 21 15 20 17 -59 89 -89 81 -104 89 -114 62z"/>
<path d="M1249 1332 c-90 -95 -100 -130 -48 -181 23 -23 40 -31 66 -31 31 0
45 9 101 65 60 60 63 65 48 81 -16 15 -21 12 -81 -45 -35 -33 -67 -61 -72 -61
-14 0 -40 23 -46 42 -5 13 12 37 55 83 33 36 59 67 57 68 -2 2 -11 8 -20 14
-12 10 -23 4 -60 -35z"/>
<path d="M4612 1287 c-9 -10 0 -26 35 -66 51 -59 55 -57 -64 -24 -46 12 -55
12 -73 0 -17 -12 -19 -17 -8 -28 7 -8 42 -47 77 -87 57 -65 66 -71 79 -58 13
13 10 20 -24 63 -22 26 -43 52 -49 56 -6 5 -1 6 10 3 120 -31 149 -36 166 -31
27 9 24 20 -19 68 -21 23 -53 59 -72 80 -37 41 -42 43 -58 24z"/>
<path d="M1435 1094 c-62 -80 -66 -88 -50 -103 15 -15 18 -14 43 17 15 18 31
32 35 32 5 0 6 -25 3 -55 -4 -47 -2 -57 14 -65 29 -15 30 -14 30 40 0 47 2 50
25 50 51 0 84 70 52 110 -16 20 -68 60 -78 60 -4 0 -38 -39 -74 -86z m115 5
c20 -37 -31 -69 -59 -36 -8 10 -6 19 7 35 21 27 38 28 52 1z"/>
<path d="M4330 1065 c-10 -12 -7 -37 15 -127 15 -62 29 -114 30 -116 1 -1 10
1 20 4 13 5 16 15 12 40 -5 28 -1 36 28 58 33 25 33 25 57 7 19 -16 27 -17 41
-6 9 7 17 15 17 18 0 8 -186 137 -198 137 -5 0 -15 -7 -22 -15z m89 -102 c-14
-17 -39 -17 -39 0 0 6 -3 23 -7 36 l-6 24 31 -23 c24 -18 29 -27 21 -37z"/>
<path d="M1689 991 c-63 -34 -88 -124 -48 -175 25 -31 50 -46 89 -51 25 -3 32
2 55 40 14 24 25 46 25 48 0 3 -16 15 -36 27 -27 18 -38 20 -47 11 -9 -10 -7
-16 9 -30 18 -14 19 -20 9 -34 -22 -30 -61 -13 -78 34 -8 24 22 78 53 94 24
12 30 12 58 -5 18 -11 32 -24 32 -30 0 -16 27 -12 34 6 7 18 -46 74 -73 75 -9
0 -24 2 -33 4 -9 2 -31 -5 -49 -14z"/>
<path d="M4187 969 c-13 -8 -17 -18 -12 -37 3 -15 8 -45 10 -67 3 -22 8 -49
12 -60 6 -20 -18 -2 -101 76 -24 22 -32 25 -48 16 -10 -7 -18 -14 -18 -18 0
-4 26 -28 114 -104 7 -5 24 -21 38 -33 21 -19 30 -22 46 -13 21 11 21 17 6
101 -2 14 -7 53 -10 88 -7 66 -9 67 -37 51z"/>
<path d="M1920 827 c-18 -40 -39 -85 -46 -101 -18 -38 -18 -43 7 -49 16 -4 24
3 41 38 l21 43 42 -20 42 -20 -19 -36 c-10 -20 -18 -42 -18 -48 0 -11 29 -28
36 -22 3 4 94 200 94 204 0 2 -9 8 -20 14 -18 9 -22 6 -37 -27 -10 -21 -18
-39 -19 -41 -2 -5 -73 28 -78 37 -3 5 1 22 9 37 19 37 19 41 -4 53 -16 9 -22
2 -51 -62z"/>
<path d="M3881 821 c-11 -7 -6 -27 29 -110 23 -56 46 -101 52 -101 16 0 108
42 108 49 0 22 -24 28 -55 15 l-32 -13 -35 81 c-35 85 -43 94 -67 79z"/>
<path d="M3740 756 c-5 -13 -12 -41 -16 -61 -3 -20 -9 -33 -13 -28 -4 4 -23
23 -43 41 -31 30 -39 32 -58 22 -21 -11 -19 -13 38 -65 41 -38 62 -66 71 -94
12 -41 17 -46 44 -35 13 4 13 11 1 50 -9 30 -10 53 -4 69 5 14 7 25 5 25 -2 0
-1 10 4 23 22 60 22 77 1 77 -12 0 -24 -9 -30 -24z"/>
<path d="M2340 698 c-7 -24 -20 -73 -30 -110 -10 -38 -15 -68 -10 -68 5 0 15
-2 22 -5 10 -4 18 7 27 35 11 36 15 39 36 34 55 -14 105 28 97 80 -7 39 -29
55 -99 70 -31 7 -32 6 -43 -36z m90 -29 c14 -24 -2 -49 -31 -49 -23 0 -28 9
-22 43 6 33 37 37 53 6z"/>
<path d="M3417 680 c-50 -40 -30 -92 43 -114 74 -22 58 -78 -17 -60 -19 5 -23
2 -23 -19 0 -23 3 -25 46 -21 113 8 125 118 17 140 -18 3 -37 12 -43 19 -15
18 14 38 48 33 24 -3 29 -1 28 16 -1 31 -63 34 -99 6z"/>
<path d="M2586 682 c-2 -4 -7 -29 -10 -57 -15 -106 -17 -121 -21 -142 -3 -18
2 -22 38 -28 23 -3 54 -8 70 -11 22 -5 27 -2 27 14 0 21 -18 32 -54 32 -30 0
-34 5 -28 36 4 23 8 25 42 21 29 -3 37 -1 37 12 0 20 -15 31 -45 31 -18 0 -23
5 -20 23 3 20 8 22 48 19 39 -2 46 0 47 17 1 16 -7 21 -45 27 -26 4 -55 8 -64
10 -10 1 -19 0 -22 -4z"/>
<path d="M3254 664 c-7 -3 -10 -27 -6 -69 2 -36 2 -65 0 -65 -2 0 -28 29 -56
64 -65 82 -88 83 -86 5 3 -117 8 -160 20 -170 26 -21 35 1 29 74 l-6 72 21
-25 c88 -106 101 -119 116 -113 13 5 14 21 9 112 -8 125 -9 128 -41 115z"/>
<path d="M2815 648 c-2 -7 -6 -59 -8 -116 -4 -100 -4 -103 17 -100 19 3 22 11
26 73 l5 70 48 -77 c33 -54 54 -78 68 -78 17 0 19 8 20 63 0 34 2 85 5 113 4
45 2 52 -16 57 -11 3 -21 1 -21 -4 -1 -5 -3 -13 -4 -19 -1 -5 -3 -36 -4 -67
l-1 -58 -48 77 c-45 75 -76 98 -87 66z"/>
</g>
</svg>
